<?xml version="1.0" standalone="no"?>
<!DOCTYPE svg PUBLIC "-//W3C//DTD SVG 20010904//EN"
 "http://www.w3.org/TR/2001/REC-SVG-20010904/DTD/svg10.dtd">
<svg version="1.0" xmlns="http://www.w3.org/2000/svg"
 width="581.000000pt" height="280.000000pt" viewBox="0 0 581.000000 280.000000"
 preserveAspectRatio="xMidYMid meet">

<g transform="translate(0.000000,280.000000) scale(0.100000,-0.100000)"
fill="#000000" stroke="none">
<path d="M590 1500 l0 -510 320 0 320 0 0 -80 0 -80 -124 0 c-96 0 -126 -3
-136 -15 -26 -32 -1 -35 290 -35 291 0 316 3 290 35 -10 12 -40 15 -136 15
l-124 0 0 80 0 80 320 0 320 0 0 510 0 510 -670 0 -670 0 0 -510z m1290 0 l0
-460 -620 0 -620 0 0 460 0 460 620 0 620 0 0 -460z"/>
<path d="M1299 1737 c-17 -17 -123 -441 -115 -462 7 -20 33 -19 44 3 5 9 33
113 62 230 47 190 51 215 38 228 -13 13 -17 13 -29 1z"/>
<path d="M975 1579 c-36 -34 -65 -69 -65 -78 0 -22 110 -131 133 -131 37 0 30
31 -19 81 l-48 49 47 48 c51 51 55 63 32 82 -12 10 -26 1 -80 -51z"/>
<path d="M1453 1614 c-4 -10 11 -32 43 -65 l48 -49 -48 -49 c-47 -48 -57 -81
-24 -81 16 0 138 121 138 136 0 17 -115 124 -133 124 -10 0 -20 -7 -24 -16z"/>
<path d="M3090 1395 l0 -235 25 0 c24 0 25 2 25 75 l0 75 28 0 c23 0 34 -11
75 -75 38 -60 52 -75 72 -75 14 0 25 2 25 5 0 2 -22 40 -50 83 -27 43 -50 83
-50 88 0 6 20 39 45 74 25 35 45 68 45 72 0 4 -11 8 -23 8 -18 0 -35 -16 -68
-65 -24 -36 -48 -65 -54 -66 -5 0 -18 -2 -27 -4 -16 -3 -18 9 -18 136 l0 139
-25 0 -25 0 0 -235z"/>
<path d="M2050 1385 l0 -225 25 0 25 0 0 105 0 105 110 0 110 0 1 -87 c2 -122
1 -118 29 -118 l25 0 3 223 2 222 -30 0 -30 0 0 -100 0 -100 -110 0 -110 0 0
100 0 100 -25 0 -25 0 0 -225z"/>
<path d="M3746 1438 c25 -95 52 -197 60 -226 l15 -53 56 3 56 3 57 223 58 222
-27 0 c-26 0 -27 -3 -76 -198 -44 -172 -53 -197 -70 -197 -18 0 -26 24 -70
198 -49 195 -50 197 -77 197 l-27 0 45 -172z"/>
<path d="M4183 1484 c-21 -8 -39 -14 -40 -14 -2 0 -12 -18 -23 -40 -24 -47
-27 -153 -6 -204 22 -52 50 -66 132 -66 84 0 104 6 104 29 0 14 -10 16 -73 13
-84 -5 -113 11 -123 65 -6 30 -4 32 29 38 19 4 67 5 106 3 78 -4 76 -6 71 67
-3 54 -23 90 -58 104 -44 18 -76 20 -119 5z m107 -54 c12 -12 20 -33 20 -54
l0 -34 -80 -1 -80 -1 0 29 c0 15 9 40 21 55 26 33 88 37 119 6z"/>
<path d="M4726 1490 c-49 -9 -76 -41 -76 -89 0 -52 27 -77 97 -91 78 -15 88
-21 88 -61 0 -30 -3 -34 -35 -41 -19 -4 -61 -5 -93 -1 -58 6 -59 5 -55 -18 3
-23 7 -24 95 -27 84 -3 93 -1 120 22 23 20 28 32 28 69 0 24 -6 51 -14 61 -12
14 -65 33 -143 50 -38 9 -47 44 -17 69 20 16 33 18 96 12 70 -6 73 -6 73 14 0
12 -6 23 -12 25 -30 9 -116 12 -152 6z"/>
<path d="M5034 1481 c-59 -27 -77 -70 -72 -178 3 -81 4 -86 36 -114 31 -27 37
-29 122 -29 90 0 105 5 94 34 -5 12 -21 15 -84 13 -89 -2 -105 6 -116 61 l-6
32 106 0 106 0 0 55 c0 65 -15 102 -50 120 -47 24 -92 27 -136 6z m116 -51
c11 -11 20 -33 20 -50 l0 -30 -81 0 -81 0 6 33 c3 17 16 40 27 50 29 23 84 22
109 -3z"/>
<path d="M2493 1483 c-7 -2 -13 -12 -13 -21 0 -15 10 -17 74 -14 83 4 106 -9
106 -58 0 -27 -2 -28 -67 -35 -105 -11 -132 -32 -133 -103 0 -81 65 -111 174
-81 27 8 41 8 49 0 15 -15 54 -14 63 1 4 7 -2 18 -14 26 -20 13 -22 23 -22
119 0 108 -13 154 -45 167 -19 7 -154 7 -172 -1z m167 -213 c0 -45 -3 -52 -26
-60 -37 -15 -100 -12 -113 4 -7 8 -11 30 -9 48 4 40 34 58 101 58 l47 0 0 -50z"/>
<path d="M2853 1480 c-39 -16 -57 -66 -57 -155 1 -133 34 -169 155 -163 56 3
64 6 64 22 0 18 -6 20 -56 17 -48 -2 -61 1 -85 22 -27 24 -29 30 -29 102 0 72
2 78 28 101 22 19 39 24 83 24 47 0 54 2 54 20 0 18 -6 20 -67 19 -38 0 -78
-4 -90 -9z"/>
<path d="M3411 1481 c-7 -5 -12 -14 -9 -21 3 -10 26 -13 79 -11 83 2 95 -4
101 -54 l3 -29 -79 -12 c-97 -15 -119 -33 -120 -97 -1 -35 5 -51 24 -72 24
-25 29 -27 90 -21 84 9 99 9 138 0 27 -5 32 -3 32 12 0 11 -9 25 -20 32 -18
11 -20 23 -20 126 0 112 -1 115 -26 135 -22 17 -41 21 -103 21 -42 0 -82 -4
-90 -9z m176 -213 c-2 -58 -12 -65 -89 -67 -49 -1 -78 35 -59 75 13 30 42 43
103 43 l46 1 -1 -52z"/>
<path d="M4440 1325 l0 -165 25 0 25 0 0 120 0 121 46 19 c25 11 52 20 60 20
8 0 14 10 14 25 0 31 -17 32 -70 5 -22 -11 -42 -20 -45 -20 -3 0 -5 9 -5 20 0
15 -7 20 -25 20 l-25 0 0 -165z"/>
</g>
</svg>
